<?xml version="1.0" encoding="utf-8" standalone="no"?>
<!DOCTYPE svg PUBLIC "-//W3C//DTD SVG 1.1//EN"
  "http://www.w3.org/Graphics/SVG/1.1/DTD/svg11.dtd">
<svg xmlns:xlink="http://www.w3.org/1999/xlink" width="670.79952pt" height="425.99952pt" viewBox="0 0 670.79952 425.99952" xmlns="http://www.w3.org/2000/svg" version="1.1">
 <metadata>
  <rdf:RDF xmlns:dc="http://purl.org/dc/elements/1.1/" xmlns:cc="http://creativecommons.org/ns#" xmlns:rdf="http://www.w3.org/1999/02/22-rdf-syntax-ns#">
   <cc:Work>
    <dc:type rdf:resource="http://purl.org/dc/dcmitype/StillImage"/>
    <dc:date>2026-03-06T10:49:05.213394</dc:date>
    <dc:format>image/svg+xml</dc:format>
    <dc:creator>
     <cc:Agent>
      <dc:title>Matplotlib v3.10.6, https://matplotlib.org/</dc:title>
     </cc:Agent>
    </dc:creator>
   </cc:Work>
  </rdf:RDF>
 </metadata>
 <defs>
  <style type="text/css">*{stroke-linejoin: round; stroke-linecap: butt}</style>
 </defs>
 <g id="figure_1">
  <g id="patch_1">
   <path d="M 0 425.99952 
L 670.79952 425.99952 
L 670.79952 0 
L 0 0 
z
" style="fill: #ffffff"/>
  </g>
  <g id="axes_1">
   <g id="patch_2">
    <path d="M 65.77125 387.887176 
L 663.59952 387.887176 
L 663.59952 7.2 
L 65.77125 7.2 
z
" style="fill: #ffffff"/>
   </g>
   <g id="matplotlib.axis_1">
    <g id="xtick_1">
     <g id="line2d_1">
      <path d="M 92.945262 387.887176 
L 92.945262 7.2 
" clip-path="url(#p85ede506e7)" style="fill: none; stroke: #cccccc; stroke-opacity: 0.25; stroke-width: 0.8; stroke-linecap: round"/>
     </g>
     <g id="line2d_2"/>
     <g id="text_1">
      <!-- 0 -->
      <g style="fill: #262626" transform="translate(89.445887 399.745457) scale(0.11 -0.11)">
       <defs>
        <path id="DejaVuSerif-30" d="M 2034 219 
Q 2513 219 2750 744 
Q 2988 1269 2988 2328 
Q 2988 3391 2750 3916 
Q 2513 4441 2034 4441 
Q 1556 4441 1318 3916 
Q 1081 3391 1081 2328 
Q 1081 1269 1318 744 
Q 1556 219 2034 219 
z
M 2034 -91 
Q 1275 -91 848 546 
Q 422 1184 422 2328 
Q 422 3475 848 4112 
Q 1275 4750 2034 4750 
Q 2797 4750 3222 4112 
Q 3647 3475 3647 2328 
Q 3647 1184 3222 546 
Q 2797 -91 2034 -91 
z
" transform="scale(0.015625)"/>
       </defs>
       <use xlink:href="#DejaVuSerif-30"/>
      </g>
     </g>
    </g>
    <g id="xtick_2">
     <g id="line2d_3">
      <path d="M 167.394611 387.887176 
L 167.394611 7.2 
" clip-path="url(#p85ede506e7)" style="fill: none; stroke: #cccccc; stroke-opacity: 0.25; stroke-width: 0.8; stroke-linecap: round"/>
     </g>
     <g id="line2d_4"/>
     <g id="text_2">
      <!-- 50 -->
      <g style="fill: #262626" transform="translate(160.395861 399.745457) scale(0.11 -0.11)">
       <defs>
        <path id="DejaVuSerif-35" d="M 3219 4666 
L 3219 4153 
L 1081 4153 
L 1081 2816 
Q 1244 2928 1461 2984 
Q 1678 3041 1947 3041 
Q 2703 3041 3140 2622 
Q 3578 2203 3578 1478 
Q 3578 738 3136 323 
Q 2694 -91 1894 -91 
Q 1572 -91 1234 -12 
Q 897 66 544 225 
L 544 1131 
L 897 1131 
Q 925 688 1179 453 
Q 1434 219 1894 219 
Q 2388 219 2653 544 
Q 2919 869 2919 1478 
Q 2919 2084 2655 2407 
Q 2391 2731 1894 2731 
Q 1613 2731 1398 2631 
Q 1184 2531 1019 2322 
L 750 2322 
L 750 4666 
L 3219 4666 
z
" transform="scale(0.015625)"/>
       </defs>
       <use xlink:href="#DejaVuSerif-35"/>
       <use xlink:href="#DejaVuSerif-30" transform="translate(63.623047 0)"/>
      </g>
     </g>
    </g>
    <g id="xtick_3">
     <g id="line2d_5">
      <path d="M 241.84396 387.887176 
L 241.84396 7.2 
" clip-path="url(#p85ede506e7)" style="fill: none; stroke: #cccccc; stroke-opacity: 0.25; stroke-width: 0.8; stroke-linecap: round"/>
     </g>
     <g id="line2d_6"/>
     <g id="text_3">
      <!-- 100 -->
      <g style="fill: #262626" transform="translate(231.345835 399.745457) scale(0.11 -0.11)">
       <defs>
        <path id="DejaVuSerif-31" d="M 909 0 
L 909 331 
L 1722 331 
L 1722 4213 
L 781 3603 
L 781 4013 
L 1919 4750 
L 2350 4750 
L 2350 331 
L 3163 331 
L 3163 0 
L 909 0 
z
" transform="scale(0.015625)"/>
       </defs>
       <use xlink:href="#DejaVuSerif-31"/>
       <use xlink:href="#DejaVuSerif-30" transform="translate(63.623047 0)"/>
       <use xlink:href="#DejaVuSerif-30" transform="translate(127.246094 0)"/>
      </g>
     </g>
    </g>
    <g id="xtick_4">
     <g id="line2d_7">
      <path d="M 316.293308 387.887176 
L 316.293308 7.2 
" clip-path="url(#p85ede506e7)" style="fill: none; stroke: #cccccc; stroke-opacity: 0.25; stroke-width: 0.8; stroke-linecap: round"/>
     </g>
     <g id="line2d_8"/>
     <g id="text_4">
      <!-- 150 -->
      <g style="fill: #262626" transform="translate(305.795183 399.745457) scale(0.11 -0.11)">
       <use xlink:href="#DejaVuSerif-31"/>
       <use xlink:href="#DejaVuSerif-35" transform="translate(63.623047 0)"/>
       <use xlink:href="#DejaVuSerif-30" transform="translate(127.246094 0)"/>
      </g>
     </g>
    </g>
    <g id="xtick_5">
     <g id="line2d_9">
      <path d="M 390.742657 387.887176 
L 390.742657 7.2 
" clip-path="url(#p85ede506e7)" style="fill: none; stroke: #cccccc; stroke-opacity: 0.25; stroke-width: 0.8; stroke-linecap: round"/>
     </g>
     <g id="line2d_10"/>
     <g id="text_5">
      <!-- 200 -->
      <g style="fill: #262626" transform="translate(380.244532 399.745457) scale(0.11 -0.11)">
       <defs>
        <path id="DejaVuSerif-32" d="M 819 3553 
L 469 3553 
L 469 4384 
Q 803 4563 1142 4656 
Q 1481 4750 1806 4750 
Q 2534 4750 2956 4397 
Q 3378 4044 3378 3438 
Q 3378 2753 2422 1800 
Q 2347 1728 2309 1691 
L 1131 513 
L 3078 513 
L 3078 1088 
L 3444 1088 
L 3444 0 
L 434 0 
L 434 341 
L 1850 1753 
Q 2319 2222 2519 2614 
Q 2719 3006 2719 3438 
Q 2719 3909 2473 4175 
Q 2228 4441 1797 4441 
Q 1350 4441 1106 4219 
Q 863 3997 819 3553 
z
" transform="scale(0.015625)"/>
       </defs>
       <use xlink:href="#DejaVuSerif-32"/>
       <use xlink:href="#DejaVuSerif-30" transform="translate(63.623047 0)"/>
       <use xlink:href="#DejaVuSerif-30" transform="translate(127.246094 0)"/>
      </g>
     </g>
    </g>
    <g id="xtick_6">
     <g id="line2d_11">
      <path d="M 465.192006 387.887176 
L 465.192006 7.2 
" clip-path="url(#p85ede506e7)" style="fill: none; stroke: #cccccc; stroke-opacity: 0.25; stroke-width: 0.8; stroke-linecap: round"/>
     </g>
     <g id="line2d_12"/>
     <g id="text_6">
      <!-- 250 -->
      <g style="fill: #262626" transform="translate(454.693881 399.745457) scale(0.11 -0.11)">
       <use xlink:href="#DejaVuSerif-32"/>
       <use xlink:href="#DejaVuSerif-35" transform="translate(63.623047 0)"/>
       <use xlink:href="#DejaVuSerif-30" transform="translate(127.246094 0)"/>
      </g>
     </g>
    </g>
    <g id="xtick_7">
     <g id="line2d_13">
      <path d="M 539.641354 387.887176 
L 539.641354 7.2 
" clip-path="url(#p85ede506e7)" style="fill: none; stroke: #cccccc; stroke-opacity: 0.25; stroke-width: 0.8; stroke-linecap: round"/>
     </g>
     <g id="line2d_14"/>
     <g id="text_7">
      <!-- 300 -->
      <g style="fill: #262626" transform="translate(529.143229 399.745457) scale(0.11 -0.11)">
       <defs>
        <path id="DejaVuSerif-33" d="M 622 4469 
Q 988 4606 1323 4678 
Q 1659 4750 1953 4750 
Q 2638 4750 3022 4454 
Q 3406 4159 3406 3634 
Q 3406 3213 3140 2930 
Q 2875 2647 2388 2547 
Q 2963 2466 3280 2130 
Q 3597 1794 3597 1259 
Q 3597 606 3158 257 
Q 2719 -91 1894 -91 
Q 1528 -91 1179 -12 
Q 831 66 488 225 
L 488 1131 
L 838 1131 
Q 869 681 1141 450 
Q 1413 219 1906 219 
Q 2384 219 2661 495 
Q 2938 772 2938 1253 
Q 2938 1803 2653 2086 
Q 2369 2369 1819 2369 
L 1522 2369 
L 1522 2688 
L 1678 2688 
Q 2225 2688 2498 2914 
Q 2772 3141 2772 3597 
Q 2772 4006 2547 4223 
Q 2322 4441 1900 4441 
Q 1478 4441 1245 4241 
Q 1013 4041 972 3647 
L 622 3647 
L 622 4469 
z
" transform="scale(0.015625)"/>
       </defs>
       <use xlink:href="#DejaVuSerif-33"/>
       <use xlink:href="#DejaVuSerif-30" transform="translate(63.623047 0)"/>
       <use xlink:href="#DejaVuSerif-30" transform="translate(127.246094 0)"/>
      </g>
     </g>
    </g>
    <g id="xtick_8">
     <g id="line2d_15">
      <path d="M 614.090703 387.887176 
L 614.090703 7.2 
" clip-path="url(#p85ede506e7)" style="fill: none; stroke: #cccccc; stroke-opacity: 0.25; stroke-width: 0.8; stroke-linecap: round"/>
     </g>
     <g id="line2d_16"/>
     <g id="text_8">
      <!-- 350 -->
      <g style="fill: #262626" transform="translate(603.592578 399.745457) scale(0.11 -0.11)">
       <use xlink:href="#DejaVuSerif-33"/>
       <use xlink:href="#DejaVuSerif-35" transform="translate(63.623047 0)"/>
       <use xlink:href="#DejaVuSerif-30" transform="translate(127.246094 0)"/>
      </g>
     </g>
    </g>
    <g id="text_9">
     <!-- Time (days) -->
     <g style="fill: #262626" transform="translate(326.077416 415.911082) scale(0.13 -0.13)">
      <defs>
       <path id="DejaVuSerif-54" d="M 1222 0 
L 1222 331 
L 1819 331 
L 1819 4294 
L 447 4294 
L 447 3566 
L 63 3566 
L 63 4666 
L 4206 4666 
L 4206 3566 
L 3822 3566 
L 3822 4294 
L 2450 4294 
L 2450 331 
L 3047 331 
L 3047 0 
L 1222 0 
z
" transform="scale(0.015625)"/>
       <path id="DejaVuSerif-69" d="M 622 4353 
Q 622 4497 726 4603 
Q 831 4709 978 4709 
Q 1122 4709 1226 4603 
Q 1331 4497 1331 4353 
Q 1331 4206 1228 4103 
Q 1125 4000 978 4000 
Q 831 4000 726 4103 
Q 622 4206 622 4353 
z
M 1356 331 
L 1900 331 
L 1900 0 
L 231 0 
L 231 331 
L 781 331 
L 781 2988 
L 231 2988 
L 231 3322 
L 1356 3322 
L 1356 331 
z
" transform="scale(0.015625)"/>
       <path id="DejaVuSerif-6d" d="M 3316 2675 
Q 3481 3041 3739 3227 
Q 3997 3413 4341 3413 
Q 4863 3413 5119 3089 
Q 5375 2766 5375 2113 
L 5375 331 
L 5894 331 
L 5894 0 
L 4300 0 
L 4300 331 
L 4800 331 
L 4800 2047 
Q 4800 2556 4650 2772 
Q 4500 2988 4153 2988 
Q 3769 2988 3567 2697 
Q 3366 2406 3366 1850 
L 3366 331 
L 3866 331 
L 3866 0 
L 2291 0 
L 2291 331 
L 2791 331 
L 2791 2069 
Q 2791 2566 2641 2777 
Q 2491 2988 2144 2988 
Q 1759 2988 1557 2697 
Q 1356 2406 1356 1850 
L 1356 331 
L 1856 331 
L 1856 0 
L 263 0 
L 263 331 
L 781 331 
L 781 2994 
L 231 2994 
L 231 3322 
L 1356 3322 
L 1356 2731 
Q 1516 3063 1762 3238 
Q 2009 3413 2322 3413 
Q 2709 3413 2968 3220 
Q 3228 3028 3316 2675 
z
" transform="scale(0.015625)"/>
       <path id="DejaVuSerif-65" d="M 3469 1600 
L 991 1600 
L 991 1575 
Q 991 903 1244 561 
Q 1497 219 1991 219 
Q 2369 219 2611 417 
Q 2853 616 2950 1006 
L 3413 1006 
Q 3275 459 2904 184 
Q 2534 -91 1931 -91 
Q 1203 -91 761 389 
Q 319 869 319 1663 
Q 319 2450 753 2931 
Q 1188 3413 1894 3413 
Q 2647 3413 3050 2948 
Q 3453 2484 3469 1600 
z
M 2791 1931 
Q 2772 2513 2545 2808 
Q 2319 3103 1894 3103 
Q 1497 3103 1269 2806 
Q 1041 2509 991 1931 
L 2791 1931 
z
" transform="scale(0.015625)"/>
       <path id="DejaVuSerif-20" transform="scale(0.015625)"/>
       <path id="DejaVuSerif-28" d="M 2041 -997 
Q 1281 -656 893 83 
Q 506 822 506 1931 
Q 506 3044 893 3783 
Q 1281 4522 2041 4863 
L 2041 4556 
Q 1559 4225 1350 3623 
Q 1141 3022 1141 1931 
Q 1141 844 1350 242 
Q 1559 -359 2041 -691 
L 2041 -997 
z
" transform="scale(0.015625)"/>
       <path id="DejaVuSerif-64" d="M 3359 331 
L 3909 331 
L 3909 0 
L 2784 0 
L 2784 519 
Q 2616 206 2355 57 
Q 2094 -91 1709 -91 
Q 1097 -91 708 395 
Q 319 881 319 1663 
Q 319 2444 706 2928 
Q 1094 3413 1709 3413 
Q 2094 3413 2355 3264 
Q 2616 3116 2784 2803 
L 2784 4531 
L 2241 4531 
L 2241 4863 
L 3359 4863 
L 3359 331 
z
M 2784 1497 
L 2784 1825 
Q 2784 2422 2554 2737 
Q 2325 3053 1888 3053 
Q 1444 3053 1217 2703 
Q 991 2353 991 1663 
Q 991 975 1217 622 
Q 1444 269 1888 269 
Q 2325 269 2554 583 
Q 2784 897 2784 1497 
z
" transform="scale(0.015625)"/>
       <path id="DejaVuSerif-61" d="M 2547 1044 
L 2547 1747 
L 1806 1747 
Q 1378 1747 1168 1562 
Q 959 1378 959 997 
Q 959 650 1171 447 
Q 1384 244 1747 244 
Q 2106 244 2326 466 
Q 2547 688 2547 1044 
z
M 3122 2075 
L 3122 331 
L 3634 331 
L 3634 0 
L 2547 0 
L 2547 359 
Q 2356 128 2106 18 
Q 1856 -91 1522 -91 
Q 969 -91 644 203 
Q 319 497 319 997 
Q 319 1513 691 1797 
Q 1063 2081 1741 2081 
L 2547 2081 
L 2547 2309 
Q 2547 2688 2317 2895 
Q 2088 3103 1672 3103 
Q 1328 3103 1125 2947 
Q 922 2791 872 2484 
L 575 2484 
L 575 3156 
Q 875 3284 1158 3348 
Q 1441 3413 1709 3413 
Q 2400 3413 2761 3070 
Q 3122 2728 3122 2075 
z
" transform="scale(0.015625)"/>
       <path id="DejaVuSerif-79" d="M 1381 -609 
L 1600 -56 
L 359 2988 
L -19 2988 
L -19 3322 
L 1509 3322 
L 1509 2988 
L 978 2988 
L 1913 703 
L 2847 2988 
L 2350 2988 
L 2350 3322 
L 3597 3322 
L 3597 2988 
L 3225 2988 
L 1703 -750 
Q 1547 -1138 1356 -1280 
Q 1166 -1422 819 -1422 
Q 672 -1422 517 -1397 
Q 363 -1372 206 -1325 
L 206 -691 
L 500 -691 
Q 519 -903 608 -995 
Q 697 -1088 884 -1088 
Q 1056 -1088 1161 -992 
Q 1266 -897 1381 -609 
z
" transform="scale(0.015625)"/>
       <path id="DejaVuSerif-73" d="M 359 184 
L 359 959 
L 691 959 
Q 703 588 923 403 
Q 1144 219 1575 219 
Q 1963 219 2166 364 
Q 2369 509 2369 788 
Q 2369 1006 2220 1140 
Q 2072 1275 1594 1428 
L 1178 1569 
Q 750 1706 558 1912 
Q 366 2119 366 2438 
Q 366 2894 700 3153 
Q 1034 3413 1625 3413 
Q 1888 3413 2178 3344 
Q 2469 3275 2778 3144 
L 2778 2419 
L 2447 2419 
Q 2434 2741 2221 2922 
Q 2009 3103 1644 3103 
Q 1281 3103 1095 2975 
Q 909 2847 909 2591 
Q 909 2381 1050 2254 
Q 1191 2128 1613 1997 
L 2069 1856 
Q 2541 1709 2748 1489 
Q 2956 1269 2956 922 
Q 2956 450 2595 179 
Q 2234 -91 1600 -91 
Q 1278 -91 972 -22 
Q 666 47 359 184 
z
" transform="scale(0.015625)"/>
       <path id="DejaVuSerif-29" d="M 453 -997 
L 453 -691 
Q 934 -359 1145 242 
Q 1356 844 1356 1931 
Q 1356 3022 1145 3623 
Q 934 4225 453 4556 
L 453 4863 
Q 1216 4522 1603 3783 
Q 1991 3044 1991 1931 
Q 1991 822 1603 83 
Q 1216 -656 453 -997 
z
" transform="scale(0.015625)"/>
      </defs>
      <use xlink:href="#DejaVuSerif-54"/>
      <use xlink:href="#DejaVuSerif-69" transform="translate(66.699219 0)"/>
      <use xlink:href="#DejaVuSerif-6d" transform="translate(98.681641 0)"/>
      <use xlink:href="#DejaVuSerif-65" transform="translate(193.505859 0)"/>
      <use xlink:href="#DejaVuSerif-20" transform="translate(252.685547 0)"/>
      <use xlink:href="#DejaVuSerif-28" transform="translate(284.472656 0)"/>
      <use xlink:href="#DejaVuSerif-64" transform="translate(323.486328 0)"/>
      <use xlink:href="#DejaVuSerif-61" transform="translate(387.5 0)"/>
      <use xlink:href="#DejaVuSerif-79" transform="translate(447.119141 0)"/>
      <use xlink:href="#DejaVuSerif-73" transform="translate(503.613281 0)"/>
      <use xlink:href="#DejaVuSerif-29" transform="translate(554.931641 0)"/>
     </g>
    </g>
   </g>
   <g id="matplotlib.axis_2">
    <g id="ytick_1">
     <g id="line2d_17">
      <path d="M 65.77125 376.507061 
L 663.59952 376.507061 
" clip-path="url(#p85ede506e7)" style="fill: none; stroke: #cccccc; stroke-opacity: 0.25; stroke-width: 0.8; stroke-linecap: round"/>
     </g>
     <g id="line2d_18"/>
     <g id="text_10">
      <!-- 0.0000 -->
      <g style="fill: #262626" transform="translate(23.781563 380.686202) scale(0.11 -0.11)">
       <defs>
        <path id="DejaVuSerif-2e" d="M 603 325 
Q 603 500 722 622 
Q 841 744 1019 744 
Q 1191 744 1312 622 
Q 1434 500 1434 325 
Q 1434 153 1312 31 
Q 1191 -91 1019 -91 
Q 841 -91 722 29 
Q 603 150 603 325 
z
" transform="scale(0.015625)"/>
       </defs>
       <use xlink:href="#DejaVuSerif-30"/>
       <use xlink:href="#DejaVuSerif-2e" transform="translate(63.623047 0)"/>
       <use xlink:href="#DejaVuSerif-30" transform="translate(95.410156 0)"/>
       <use xlink:href="#DejaVuSerif-30" transform="translate(159.033203 0)"/>
       <use xlink:href="#DejaVuSerif-30" transform="translate(222.65625 0)"/>
       <use xlink:href="#DejaVuSerif-30" transform="translate(286.279297 0)"/>
      </g>
     </g>
    </g>
    <g id="ytick_2">
     <g id="line2d_19">
      <path d="M 65.77125 327.874287 
L 663.59952 327.874287 
" clip-path="url(#p85ede506e7)" style="fill: none; stroke: #cccccc; stroke-opacity: 0.25; stroke-width: 0.8; stroke-linecap: round"/>
     </g>
     <g id="line2d_20"/>
     <g id="text_11">
      <!-- 0.0025 -->
      <g style="fill: #262626" transform="translate(23.781563 332.053428) scale(0.11 -0.11)">
       <use xlink:href="#DejaVuSerif-30"/>
       <use xlink:href="#DejaVuSerif-2e" transform="translate(63.623047 0)"/>
       <use xlink:href="#DejaVuSerif-30" transform="translate(95.410156 0)"/>
       <use xlink:href="#DejaVuSerif-30" transform="translate(159.033203 0)"/>
       <use xlink:href="#DejaVuSerif-32" transform="translate(222.65625 0)"/>
       <use xlink:href="#DejaVuSerif-35" transform="translate(286.279297 0)"/>
      </g>
     </g>
    </g>
    <g id="ytick_3">
     <g id="line2d_21">
      <path d="M 65.77125 279.241513 
L 663.59952 279.241513 
" clip-path="url(#p85ede506e7)" style="fill: none; stroke: #cccccc; stroke-opacity: 0.25; stroke-width: 0.8; stroke-linecap: round"/>
     </g>
     <g id="line2d_22"/>
     <g id="text_12">
      <!-- 0.0050 -->
      <g style="fill: #262626" transform="translate(23.781563 283.420654) scale(0.11 -0.11)">
       <use xlink:href="#DejaVuSerif-30"/>
       <use xlink:href="#DejaVuSerif-2e" transform="translate(63.623047 0)"/>
       <use xlink:href="#DejaVuSerif-30" transform="translate(95.410156 0)"/>
       <use xlink:href="#DejaVuSerif-30" transform="translate(159.033203 0)"/>
       <use xlink:href="#DejaVuSerif-35" transform="translate(222.65625 0)"/>
       <use xlink:href="#DejaVuSerif-30" transform="translate(286.279297 0)"/>
      </g>
     </g>
    </g>
    <g id="ytick_4">
     <g id="line2d_23">
      <path d="M 65.77125 230.608739 
L 663.59952 230.608739 
" clip-path="url(#p85ede506e7)" style="fill: none; stroke: #cccccc; stroke-opacity: 0.25; stroke-width: 0.8; stroke-linecap: round"/>
     </g>
     <g id="line2d_24"/>
     <g id="text_13">
      <!-- 0.0075 -->
      <g style="fill: #262626" transform="translate(23.781563 234.78788) scale(0.11 -0.11)">
       <defs>
        <path id="DejaVuSerif-37" d="M 3609 4347 
L 1784 0 
L 1319 0 
L 3059 4153 
L 903 4153 
L 903 3578 
L 538 3578 
L 538 4666 
L 3609 4666 
L 3609 4347 
z
" transform="scale(0.015625)"/>
       </defs>
       <use xlink:href="#DejaVuSerif-30"/>
       <use xlink:href="#DejaVuSerif-2e" transform="translate(63.623047 0)"/>
       <use xlink:href="#DejaVuSerif-30" transform="translate(95.410156 0)"/>
       <use xlink:href="#DejaVuSerif-30" transform="translate(159.033203 0)"/>
       <use xlink:href="#DejaVuSerif-37" transform="translate(222.65625 0)"/>
       <use xlink:href="#DejaVuSerif-35" transform="translate(286.279297 0)"/>
      </g>
     </g>
    </g>
    <g id="ytick_5">
     <g id="line2d_25">
      <path d="M 65.77125 181.975966 
L 663.59952 181.975966 
" clip-path="url(#p85ede506e7)" style="fill: none; stroke: #cccccc; stroke-opacity: 0.25; stroke-width: 0.8; stroke-linecap: round"/>
     </g>
     <g id="line2d_26"/>
     <g id="text_14">
      <!-- 0.0100 -->
      <g style="fill: #262626" transform="translate(23.781563 186.155106) scale(0.11 -0.11)">
       <use xlink:href="#DejaVuSerif-30"/>
       <use xlink:href="#DejaVuSerif-2e" transform="translate(63.623047 0)"/>
       <use xlink:href="#DejaVuSerif-30" transform="translate(95.410156 0)"/>
       <use xlink:href="#DejaVuSerif-31" transform="translate(159.033203 0)"/>
       <use xlink:href="#DejaVuSerif-30" transform="translate(222.65625 0)"/>
       <use xlink:href="#DejaVuSerif-30" transform="translate(286.279297 0)"/>
      </g>
     </g>
    </g>
    <g id="ytick_6">
     <g id="line2d_27">
      <path d="M 65.77125 133.343192 
L 663.59952 133.343192 
" clip-path="url(#p85ede506e7)" style="fill: none; stroke: #cccccc; stroke-opacity: 0.25; stroke-width: 0.8; stroke-linecap: round"/>
     </g>
     <g id="line2d_28"/>
     <g id="text_15">
      <!-- 0.0125 -->
      <g style="fill: #262626" transform="translate(23.781563 137.522332) scale(0.11 -0.11)">
       <use xlink:href="#DejaVuSerif-30"/>
       <use xlink:href="#DejaVuSerif-2e" transform="translate(63.623047 0)"/>
       <use xlink:href="#DejaVuSerif-30" transform="translate(95.410156 0)"/>
       <use xlink:href="#DejaVuSerif-31" transform="translate(159.033203 0)"/>
       <use xlink:href="#DejaVuSerif-32" transform="translate(222.65625 0)"/>
       <use xlink:href="#DejaVuSerif-35" transform="translate(286.279297 0)"/>
      </g>
     </g>
    </g>
    <g id="ytick_7">
     <g id="line2d_29">
      <path d="M 65.77125 84.710418 
L 663.59952 84.710418 
" clip-path="url(#p85ede506e7)" style="fill: none; stroke: #cccccc; stroke-opacity: 0.25; stroke-width: 0.8; stroke-linecap: round"/>
     </g>
     <g id="line2d_30"/>
     <g id="text_16">
      <!-- 0.0150 -->
      <g style="fill: #262626" transform="translate(23.781563 88.889558) scale(0.11 -0.11)">
       <use xlink:href="#DejaVuSerif-30"/>
       <use xlink:href="#DejaVuSerif-2e" transform="translate(63.623047 0)"/>
       <use xlink:href="#DejaVuSerif-30" transform="translate(95.410156 0)"/>
       <use xlink:href="#DejaVuSerif-31" transform="translate(159.033203 0)"/>
       <use xlink:href="#DejaVuSerif-35" transform="translate(222.65625 0)"/>
       <use xlink:href="#DejaVuSerif-30" transform="translate(286.279297 0)"/>
      </g>
     </g>
    </g>
    <g id="ytick_8">
     <g id="line2d_31">
      <path d="M 65.77125 36.077644 
L 663.59952 36.077644 
" clip-path="url(#p85ede506e7)" style="fill: none; stroke: #cccccc; stroke-opacity: 0.25; stroke-width: 0.8; stroke-linecap: round"/>
     </g>
     <g id="line2d_32"/>
     <g id="text_17">
      <!-- 0.0175 -->
      <g style="fill: #262626" transform="translate(23.781563 40.256785) scale(0.11 -0.11)">
       <use xlink:href="#DejaVuSerif-30"/>
       <use xlink:href="#DejaVuSerif-2e" transform="translate(63.623047 0)"/>
       <use xlink:href="#DejaVuSerif-30" transform="translate(95.410156 0)"/>
       <use xlink:href="#DejaVuSerif-31" transform="translate(159.033203 0)"/>
       <use xlink:href="#DejaVuSerif-37" transform="translate(222.65625 0)"/>
       <use xlink:href="#DejaVuSerif-35" transform="translate(286.279297 0)"/>
      </g>
     </g>
    </g>
    <g id="text_18">
     <!-- Infectious proportion -->
     <g style="fill: #262626" transform="translate(17.077969 267.535385) rotate(-90) scale(0.13 -0.13)">
      <defs>
       <path id="DejaVuSerif-49" d="M 1581 331 
L 2175 331 
L 2175 0 
L 353 0 
L 353 331 
L 947 331 
L 947 4331 
L 353 4331 
L 353 4666 
L 2175 4666 
L 2175 4331 
L 1581 4331 
L 1581 331 
z
" transform="scale(0.015625)"/>
       <path id="DejaVuSerif-6e" d="M 263 0 
L 263 331 
L 781 331 
L 781 2988 
L 231 2988 
L 231 3322 
L 1356 3322 
L 1356 2731 
Q 1516 3069 1770 3241 
Q 2025 3413 2363 3413 
Q 2913 3413 3172 3097 
Q 3431 2781 3431 2113 
L 3431 331 
L 3944 331 
L 3944 0 
L 2356 0 
L 2356 331 
L 2853 331 
L 2853 1931 
Q 2853 2541 2703 2767 
Q 2553 2994 2175 2994 
Q 1775 2994 1565 2701 
Q 1356 2409 1356 1850 
L 1356 331 
L 1856 331 
L 1856 0 
L 263 0 
z
" transform="scale(0.015625)"/>
       <path id="DejaVuSerif-66" d="M 2753 4078 
L 2450 4078 
Q 2447 4313 2317 4434 
Q 2188 4556 1941 4556 
Q 1619 4556 1487 4379 
Q 1356 4203 1356 3750 
L 1356 3322 
L 2284 3322 
L 2284 2988 
L 1356 2988 
L 1356 331 
L 2094 331 
L 2094 0 
L 231 0 
L 231 331 
L 781 331 
L 781 2988 
L 231 2988 
L 231 3322 
L 781 3322 
L 781 3738 
Q 781 4294 1070 4578 
Q 1359 4863 1919 4863 
Q 2128 4863 2337 4825 
Q 2547 4788 2753 4709 
L 2753 4078 
z
" transform="scale(0.015625)"/>
       <path id="DejaVuSerif-63" d="M 3291 997 
Q 3169 466 2822 187 
Q 2475 -91 1925 -91 
Q 1200 -91 759 389 
Q 319 869 319 1663 
Q 319 2459 759 2936 
Q 1200 3413 1925 3413 
Q 2241 3413 2553 3339 
Q 2866 3266 3181 3116 
L 3181 2266 
L 2847 2266 
Q 2781 2703 2561 2903 
Q 2341 3103 1931 3103 
Q 1466 3103 1228 2742 
Q 991 2381 991 1663 
Q 991 944 1227 581 
Q 1463 219 1931 219 
Q 2303 219 2525 412 
Q 2747 606 2828 997 
L 3291 997 
z
" transform="scale(0.015625)"/>
       <path id="DejaVuSerif-74" d="M 691 2988 
L 184 2988 
L 184 3322 
L 691 3322 
L 691 4353 
L 1269 4353 
L 1269 3322 
L 2350 3322 
L 2350 2988 
L 1269 2988 
L 1269 878 
Q 1269 456 1350 337 
Q 1431 219 1650 219 
Q 1875 219 1978 351 
Q 2081 484 2088 781 
L 2522 781 
Q 2497 328 2275 118 
Q 2053 -91 1600 -91 
Q 1103 -91 897 129 
Q 691 350 691 878 
L 691 2988 
z
" transform="scale(0.015625)"/>
       <path id="DejaVuSerif-6f" d="M 1925 219 
Q 2388 219 2623 584 
Q 2859 950 2859 1663 
Q 2859 2375 2623 2739 
Q 2388 3103 1925 3103 
Q 1463 3103 1227 2739 
Q 991 2375 991 1663 
Q 991 950 1228 584 
Q 1466 219 1925 219 
z
M 1925 -91 
Q 1200 -91 759 389 
Q 319 869 319 1663 
Q 319 2456 758 2934 
Q 1197 3413 1925 3413 
Q 2653 3413 3092 2934 
Q 3531 2456 3531 1663 
Q 3531 869 3092 389 
Q 2653 -91 1925 -91 
z
" transform="scale(0.015625)"/>
       <path id="DejaVuSerif-75" d="M 2266 3322 
L 3341 3322 
L 3341 331 
L 3884 331 
L 3884 0 
L 2766 0 
L 2766 588 
Q 2606 256 2353 82 
Q 2100 -91 1766 -91 
Q 1213 -91 952 223 
Q 691 538 691 1209 
L 691 2988 
L 172 2988 
L 172 3322 
L 1269 3322 
L 1269 1388 
Q 1269 781 1417 556 
Q 1566 331 1947 331 
Q 2347 331 2556 625 
Q 2766 919 2766 1478 
L 2766 2988 
L 2266 2988 
L 2266 3322 
z
" transform="scale(0.015625)"/>
       <path id="DejaVuSerif-70" d="M 1313 1825 
L 1313 1497 
Q 1313 897 1542 583 
Q 1772 269 2209 269 
Q 2650 269 2876 622 
Q 3103 975 3103 1663 
Q 3103 2353 2876 2703 
Q 2650 3053 2209 3053 
Q 1772 3053 1542 2737 
Q 1313 2422 1313 1825 
z
M 738 2988 
L 184 2988 
L 184 3322 
L 1313 3322 
L 1313 2803 
Q 1481 3116 1742 3264 
Q 2003 3413 2388 3413 
Q 3000 3413 3387 2928 
Q 3775 2444 3775 1663 
Q 3775 881 3387 395 
Q 3000 -91 2388 -91 
Q 2003 -91 1742 57 
Q 1481 206 1313 519 
L 1313 -997 
L 1856 -997 
L 1856 -1331 
L 184 -1331 
L 184 -997 
L 738 -997 
L 738 2988 
z
" transform="scale(0.015625)"/>
       <path id="DejaVuSerif-72" d="M 3059 3328 
L 3059 2497 
L 2728 2497 
Q 2713 2744 2591 2866 
Q 2469 2988 2234 2988 
Q 1809 2988 1582 2694 
Q 1356 2400 1356 1850 
L 1356 331 
L 2022 331 
L 2022 0 
L 263 0 
L 263 331 
L 781 331 
L 781 2994 
L 231 2994 
L 231 3322 
L 1356 3322 
L 1356 2731 
Q 1525 3078 1790 3245 
Q 2056 3413 2438 3413 
Q 2578 3413 2733 3391 
Q 2888 3369 3059 3328 
z
" transform="scale(0.015625)"/>
      </defs>
      <use xlink:href="#DejaVuSerif-49"/>
      <use xlink:href="#DejaVuSerif-6e" transform="translate(39.501953 0)"/>
      <use xlink:href="#DejaVuSerif-66" transform="translate(103.90625 0)"/>
      <use xlink:href="#DejaVuSerif-65" transform="translate(140.917969 0)"/>
      <use xlink:href="#DejaVuSerif-63" transform="translate(200.097656 0)"/>
      <use xlink:href="#DejaVuSerif-74" transform="translate(256.103516 0)"/>
      <use xlink:href="#DejaVuSerif-69" transform="translate(296.289062 0)"/>
      <use xlink:href="#DejaVuSerif-6f" transform="translate(328.271484 0)"/>
      <use xlink:href="#DejaVuSerif-75" transform="translate(388.476562 0)"/>
      <use xlink:href="#DejaVuSerif-73" transform="translate(452.880859 0)"/>
      <use xlink:href="#DejaVuSerif-20" transform="translate(504.199219 0)"/>
      <use xlink:href="#DejaVuSerif-70" transform="translate(535.986328 0)"/>
      <use xlink:href="#DejaVuSerif-72" transform="translate(600 0)"/>
      <use xlink:href="#DejaVuSerif-6f" transform="translate(647.802734 0)"/>
      <use xlink:href="#DejaVuSerif-70" transform="translate(708.007812 0)"/>
      <use xlink:href="#DejaVuSerif-6f" transform="translate(772.021484 0)"/>
      <use xlink:href="#DejaVuSerif-72" transform="translate(832.226562 0)"/>
      <use xlink:href="#DejaVuSerif-74" transform="translate(880.029297 0)"/>
      <use xlink:href="#DejaVuSerif-69" transform="translate(920.214844 0)"/>
      <use xlink:href="#DejaVuSerif-6f" transform="translate(952.197266 0)"/>
      <use xlink:href="#DejaVuSerif-6e" transform="translate(1012.402344 0)"/>
     </g>
    </g>
   </g>
   <g id="line2d_33">
    <path d="M 92.945262 366.790223 
L 94.43834 368.453016 
L 95.931417 369.275236 
L 97.424495 369.63346 
L 98.917573 369.734341 
L 101.903728 369.565813 
L 106.382961 368.965416 
L 113.848349 367.672862 
L 121.313737 366.144434 
L 128.779125 364.362236 
L 134.751435 362.729098 
L 140.723745 360.888765 
L 146.696056 358.818272 
L 152.668366 356.493107 
L 158.640677 353.887293 
L 164.612987 350.97369 
L 169.09222 348.569741 
L 173.571453 345.965117 
L 178.050685 343.148022 
L 182.529918 340.106958 
L 187.009151 336.830941 
L 191.488384 333.309792 
L 195.967616 329.534489 
L 200.446849 325.498062 
L 204.926082 321.195014 
L 209.405315 316.622258 
L 213.884548 311.779829 
L 218.36378 306.671188 
L 224.336091 299.459085 
L 230.308401 291.81791 
L 236.280712 283.794432 
L 243.7461 273.327816 
L 254.197643 258.171637 
L 266.142264 240.864312 
L 272.114574 232.548894 
L 278.086884 224.664447 
L 282.566117 219.128328 
L 287.04535 213.987097 
L 291.524583 209.301325 
L 294.510738 206.457831 
L 297.496893 203.855746 
L 300.483048 201.508173 
L 303.469204 199.426659 
L 306.455359 197.620573 
L 309.441514 196.096857 
L 312.427669 194.860875 
L 315.413824 193.915687 
L 318.399979 193.262189 
L 321.386135 192.89911 
L 324.37229 192.823093 
L 327.358445 193.028774 
L 330.3446 193.508832 
L 333.330755 194.254205 
L 336.316911 195.254278 
L 339.303066 196.497021 
L 342.289221 197.969152 
L 345.275376 199.65633 
L 348.261531 201.543446 
L 352.740764 204.714625 
L 357.219997 208.245501 
L 361.69923 212.080812 
L 367.67154 217.573677 
L 373.643851 223.38589 
L 382.602316 232.45284 
L 400.519247 250.677053 
L 407.984635 257.942595 
L 415.450023 264.875791 
L 421.422334 270.143774 
L 427.394644 275.142794 
L 433.366954 279.861426 
L 439.339265 284.294685 
L 445.311575 288.442652 
L 451.283886 292.309405 
L 457.256196 295.901974 
L 463.228506 299.229718 
L 469.200817 302.303518 
L 475.173127 305.134905 
L 481.145438 307.736224 
L 487.117748 310.119842 
L 493.090058 312.298018 
L 500.555446 314.749911 
L 508.020834 316.921665 
L 515.486222 318.835072 
L 522.95161 320.508385 
L 530.416998 321.959818 
L 537.882386 323.205542 
L 546.840852 324.449449 
L 555.799317 325.440496 
L 564.757783 326.198334 
L 573.716249 326.740286 
L 582.674714 327.081192 
L 593.126257 327.241984 
L 603.577801 327.164477 
L 614.029344 326.86388 
L 624.480887 326.353603 
L 636.425508 325.528937 
L 636.425508 325.528937 
" clip-path="url(#p85ede506e7)" style="fill: none; stroke: #1b9e77; stroke-width: 2.3; stroke-linecap: round"/>
   </g>
   <g id="line2d_34">
    <path d="M 92.945262 366.790223 
L 94.43834 368.235259 
L 95.931417 368.97504 
L 97.424495 369.311161 
L 98.917573 369.415267 
L 101.903728 369.275576 
L 106.382961 368.725086 
L 113.848349 367.524536 
L 121.313737 366.118609 
L 128.779125 364.501578 
L 136.244513 362.646798 
L 143.709901 360.52397 
L 149.682211 358.611017 
L 155.654521 356.488109 
L 161.626832 354.137126 
L 167.599142 351.539656 
L 173.571453 348.677401 
L 179.543763 345.532671 
L 185.516073 342.088951 
L 191.488384 338.331656 
L 197.460694 334.249223 
L 203.433004 329.835037 
L 209.405315 325.086229 
L 215.377625 320.007347 
L 221.349936 314.610873 
L 227.322246 308.918636 
L 234.787634 301.438023 
L 242.253022 293.636322 
L 255.69072 279.1852 
L 266.142264 268.094837 
L 272.114574 262.041366 
L 278.086884 256.327511 
L 282.566117 252.329235 
L 287.04535 248.625355 
L 291.524583 245.256425 
L 296.003816 242.258901 
L 298.989971 240.482734 
L 301.976126 238.893941 
L 304.962281 237.499353 
L 307.948436 236.304082 
L 310.934591 235.312263 
L 313.920747 234.526481 
L 316.906902 233.947846 
L 319.893057 233.57604 
L 322.879212 233.409317 
L 325.865367 233.444568 
L 328.851523 233.677373 
L 331.837678 234.102038 
L 334.823833 234.711801 
L 337.809988 235.498887 
L 340.796143 236.454626 
L 345.275376 238.183595 
L 349.754609 240.236237 
L 354.233842 242.576038 
L 358.713075 245.165151 
L 364.685385 248.939495 
L 370.657695 253.001078 
L 378.123083 258.35459 
L 393.053859 269.439524 
L 404.99848 278.16498 
L 413.956946 284.403572 
L 421.422334 289.327433 
L 428.887722 293.965616 
L 436.35311 298.298812 
L 443.818498 302.318454 
L 449.790808 305.308043 
L 457.256196 308.766951 
L 464.721584 311.926035 
L 472.186972 314.797743 
L 479.65236 317.3969 
L 487.117748 319.73904 
L 494.583136 321.840089 
L 502.048524 323.715792 
L 509.513912 325.381352 
L 516.9793 326.851096 
L 525.937766 328.375297 
L 534.896231 329.658328 
L 543.854697 330.719471 
L 552.813162 331.575948 
L 563.264705 332.336785 
L 573.716249 332.861026 
L 584.167792 333.167001 
L 594.619335 333.270539 
L 606.563956 333.158548 
L 618.508577 332.818007 
L 630.453197 332.26458 
L 636.425508 331.912605 
L 636.425508 331.912605 
" clip-path="url(#p85ede506e7)" style="fill: none; stroke-dasharray: 8.51,3.68; stroke-dashoffset: 0; stroke: #1b9e77; stroke-width: 2.3"/>
   </g>
   <g id="line2d_35">
    <path d="M 92.945262 366.790223 
L 94.43834 368.453205 
L 95.931417 369.277605 
L 97.424495 369.642875 
L 98.917573 369.757986 
L 101.903728 369.644 
L 107.876038 369.019999 
L 121.313737 367.331486 
L 131.76528 365.821209 
L 142.216823 364.090743 
L 152.668366 362.108691 
L 161.626832 360.187588 
L 170.585297 358.041822 
L 179.543763 355.653991 
L 188.502229 353.00668 
L 195.967616 350.590934 
L 203.433004 347.976719 
L 210.898392 345.157903 
L 218.36378 342.130828 
L 225.829168 338.894244 
L 233.294556 335.450327 
L 242.253022 331.052677 
L 251.211488 326.383859 
L 260.169953 321.473266 
L 270.621496 315.493113 
L 285.552272 306.647646 
L 306.455359 294.248795 
L 315.413824 289.168877 
L 322.879212 285.142067 
L 330.3446 281.360653 
L 336.316911 278.546984 
L 342.289221 275.947991 
L 348.261531 273.585904 
L 354.233842 271.479893 
L 360.206152 269.645409 
L 366.178463 268.095577 
L 372.150773 266.838329 
L 378.123083 265.878058 
L 384.095394 265.214996 
L 390.067704 264.845446 
L 396.040015 264.76193 
L 402.012325 264.953604 
L 407.984635 265.406562 
L 413.956946 266.10412 
L 419.929256 267.027791 
L 425.901566 268.157741 
L 433.366954 269.826755 
L 440.832342 271.741635 
L 449.790808 274.303417 
L 460.242351 277.565253 
L 473.68005 282.02897 
L 511.00699 294.593539 
L 524.444688 298.793741 
L 536.389309 302.281643 
L 546.840852 305.120554 
L 557.292395 307.749641 
L 567.743938 310.16438 
L 578.195481 312.36482 
L 588.647025 314.354267 
L 599.098568 316.138542 
L 611.043189 317.935823 
L 622.987809 319.487035 
L 634.93243 320.805251 
L 636.425508 320.954319 
L 636.425508 320.954319 
" clip-path="url(#p85ede506e7)" style="fill: none; stroke: #d95f02; stroke-width: 2.3; stroke-linecap: round"/>
   </g>
   <g id="line2d_36">
    <path d="M 92.945262 366.790223 
L 94.43834 368.235423 
L 95.931417 368.977133 
L 97.424495 369.319616 
L 98.917573 369.436818 
L 101.903728 369.34867 
L 107.876038 368.787416 
L 125.792969 366.776429 
L 139.230668 365.044943 
L 151.175289 363.287618 
L 163.119909 361.299933 
L 175.06453 359.062896 
L 185.516073 356.888749 
L 195.967616 354.504359 
L 206.41916 351.906305 
L 216.870703 349.09624 
L 228.815324 345.636013 
L 240.759944 341.934922 
L 254.197643 337.53517 
L 273.607652 330.915195 
L 294.510738 323.826125 
L 306.455359 320.01186 
L 315.413824 317.355826 
L 324.37229 314.931111 
L 331.837678 313.121271 
L 339.303066 311.529166 
L 346.768454 310.175643 
L 354.233842 309.077127 
L 361.69923 308.245124 
L 369.164618 307.686126 
L 376.630006 307.400917 
L 384.095394 307.38499 
L 391.560782 307.6288 
L 399.02617 308.118196 
L 406.491558 308.835142 
L 413.956946 309.758606 
L 422.915411 311.106294 
L 431.873877 312.674767 
L 442.32542 314.725201 
L 455.763118 317.606555 
L 478.159282 322.693601 
L 502.048524 328.052278 
L 518.472378 331.496919 
L 533.403154 334.386863 
L 546.840852 336.767379 
L 560.27855 338.931145 
L 573.716249 340.879081 
L 587.153947 342.618331 
L 602.084723 344.318324 
L 617.015499 345.790453 
L 633.439353 347.168792 
L 636.425508 347.394143 
L 636.425508 347.394143 
" clip-path="url(#p85ede506e7)" style="fill: none; stroke-dasharray: 8.51,3.68; stroke-dashoffset: 0; stroke: #d95f02; stroke-width: 2.3"/>
   </g>
   <g id="line2d_37">
    <path d="M 92.945262 366.790223 
L 94.43834 368.453345 
L 95.931417 369.279361 
L 97.424495 369.649841 
L 98.917573 369.775439 
L 101.903728 369.701329 
L 110.862193 368.98117 
L 143.709901 366.183861 
L 161.626832 364.381969 
L 179.543763 362.344354 
L 197.460694 360.069428 
L 215.377625 357.569117 
L 236.280712 354.408569 
L 264.649186 349.855981 
L 294.510738 345.102848 
L 310.934591 342.707389 
L 324.37229 340.960209 
L 336.316911 339.619293 
L 348.261531 338.51735 
L 358.713075 337.774985 
L 369.164618 337.256517 
L 379.616161 336.972928 
L 390.067704 336.928848 
L 400.519247 337.122203 
L 410.970791 337.544633 
L 421.422334 338.181901 
L 433.366954 339.148197 
L 445.311575 340.334489 
L 458.749274 341.882659 
L 475.173127 343.99871 
L 500.555446 347.524594 
L 536.389309 352.48402 
L 557.292395 355.151314 
L 576.702404 357.406905 
L 596.112413 359.429363 
L 615.522421 361.217956 
L 634.93243 362.784027 
L 636.425508 362.895774 
L 636.425508 362.895774 
" clip-path="url(#p85ede506e7)" style="fill: none; stroke: #7570b3; stroke-width: 2.3; stroke-linecap: round"/>
   </g>
   <g id="line2d_38">
    <path d="M 92.945262 366.790223 
L 94.43834 368.235421 
L 95.931417 368.977132 
L 97.424495 369.319615 
L 98.917573 369.436821 
L 101.903728 369.348664 
L 107.876038 368.787358 
L 125.792969 366.775063 
L 139.230668 365.039669 
L 151.175289 363.274126 
L 163.119909 361.270132 
L 173.571453 359.301857 
L 184.022996 357.116678 
L 194.474539 354.699537 
L 204.926082 352.036885 
L 215.377625 349.116986 
L 225.829168 345.931172 
L 236.280712 342.474312 
L 246.732255 338.746146 
L 257.183798 334.75189 
L 267.635341 330.504333 
L 278.086884 326.023293 
L 290.031505 320.653275 
L 303.469204 314.363842 
L 325.865367 303.581787 
L 343.782299 295.040503 
L 355.726919 289.578915 
L 366.178463 285.052409 
L 375.136928 281.415355 
L 384.095394 278.04491 
L 391.560782 275.465555 
L 399.02617 273.113403 
L 406.491558 271.00278 
L 413.956946 269.145341 
L 421.422334 267.547335 
L 428.887722 266.212644 
L 436.35311 265.141305 
L 443.818498 264.329796 
L 451.283886 263.771374 
L 458.749274 263.45633 
L 466.214662 263.372372 
L 473.68005 263.505205 
L 481.145438 263.838647 
L 490.103903 264.478942 
L 499.062369 265.351414 
L 509.513912 266.620019 
L 519.965455 268.109339 
L 533.403154 270.269642 
L 549.827007 273.154512 
L 606.563956 283.329652 
L 622.987809 285.951941 
L 636.425508 287.914211 
L 636.425508 287.914211 
" clip-path="url(#p85ede506e7)" style="fill: none; stroke-dasharray: 8.51,3.68; stroke-dashoffset: 0; stroke: #7570b3; stroke-width: 2.3"/>
   </g>
   <g id="line2d_39">
    <path d="M 92.945262 366.790223 
L 94.43834 368.45283 
L 95.931417 369.272886 
L 97.424495 369.624106 
L 98.917573 369.710787 
L 101.903728 369.487322 
L 106.382961 368.734291 
L 110.862193 367.755525 
L 116.834504 366.196965 
L 122.806814 364.343774 
L 127.286047 362.738993 
L 131.76528 360.927309 
L 136.244513 358.885112 
L 140.723745 356.585789 
L 145.202978 354.000045 
L 149.682211 351.096064 
L 154.161444 347.839121 
L 158.640677 344.191756 
L 161.626832 341.523775 
L 164.612987 338.652273 
L 167.599142 335.56447 
L 170.585297 332.247238 
L 173.571453 328.687188 
L 176.557608 324.870749 
L 179.543763 320.784222 
L 182.529918 316.414014 
L 185.516073 311.74678 
L 188.502229 306.769614 
L 191.488384 301.470366 
L 194.474539 295.83767 
L 197.460694 289.861212 
L 200.446849 283.531973 
L 203.433004 276.843212 
L 207.912237 266.125911 
L 212.39147 254.584442 
L 216.870703 242.229648 
L 221.349936 229.091574 
L 225.829168 215.222551 
L 230.308401 200.700036 
L 236.280712 180.505206 
L 245.239177 149.12958 
L 254.197643 117.79325 
L 258.676876 102.700474 
L 263.156108 88.318446 
L 267.635341 74.89669 
L 270.621496 66.601958 
L 273.607652 58.90873 
L 276.593807 51.879287 
L 279.579962 45.569646 
L 282.566117 40.028282 
L 285.552272 35.295379 
L 287.04535 33.242266 
L 288.538428 31.402282 
L 290.031505 29.777803 
L 291.524583 28.370509 
L 293.01766 27.181406 
L 294.510738 26.21093 
L 296.003816 25.458841 
L 297.496893 24.924518 
L 298.989971 24.606924 
L 300.483048 24.503963 
L 301.976126 24.612837 
L 303.469204 24.930514 
L 304.962281 25.453445 
L 306.455359 26.177416 
L 307.948436 27.097904 
L 309.441514 28.209832 
L 310.934591 29.507752 
L 312.427669 30.985844 
L 313.920747 32.637943 
L 316.906902 36.438075 
L 319.893057 40.853493 
L 322.879212 45.826212 
L 325.865367 51.296447 
L 328.851523 57.203773 
L 333.330755 66.751968 
L 337.809988 76.947785 
L 343.782299 91.22613 
L 367.67154 149.313378 
L 373.643851 162.804578 
L 378.123083 172.453833 
L 382.602316 181.663493 
L 387.081549 190.412686 
L 391.560782 198.690262 
L 396.040015 206.493098 
L 400.519247 213.824515 
L 404.99848 220.692858 
L 409.477713 227.110468 
L 413.956946 233.092499 
L 418.436179 238.655756 
L 422.915411 243.818483 
L 427.394644 248.600034 
L 431.873877 253.019341 
L 436.35311 257.095516 
L 440.832342 260.847281 
L 445.311575 264.292386 
L 449.790808 267.448306 
L 454.270041 270.331374 
L 458.749274 272.957037 
L 463.228506 275.339784 
L 467.707739 277.493148 
L 472.186972 279.429656 
L 476.666205 281.160924 
L 481.145438 282.697689 
L 485.62467 284.049842 
L 491.596981 285.580831 
L 497.569291 286.818594 
L 503.541602 287.78007 
L 509.513912 288.480014 
L 515.486222 288.931347 
L 521.458533 289.145272 
L 527.430843 289.131482 
L 533.403154 288.898267 
L 539.375464 288.452702 
L 545.347774 287.800788 
L 551.320085 286.947789 
L 557.292395 285.898823 
L 563.264705 284.65681 
L 569.237016 283.225875 
L 575.209326 281.609106 
L 582.674714 279.331905 
L 590.140102 276.775451 
L 597.60549 273.946389 
L 605.070878 270.852917 
L 612.536266 267.504152 
L 620.001654 263.911384 
L 627.467042 260.088333 
L 636.425508 255.220231 
L 636.425508 255.220231 
" clip-path="url(#p85ede506e7)" style="fill: none; stroke: #e7298a; stroke-width: 2.3; stroke-linecap: round"/>
   </g>
   <g id="line2d_40">
    <path d="M 92.945262 366.790223 
L 94.43834 368.235261 
L 95.931417 368.975039 
L 97.424495 369.311161 
L 98.917573 369.415264 
L 101.903728 369.275591 
L 106.382961 368.725147 
L 113.848349 367.52492 
L 121.313737 366.119981 
L 128.779125 364.50536 
L 136.244513 362.655627 
L 143.709901 360.542603 
L 149.682211 358.643008 
L 155.654521 356.541113 
L 161.626832 354.222186 
L 167.599142 351.672716 
L 173.571453 348.880962 
L 179.543763 345.838043 
L 185.516073 342.539193 
L 191.488384 338.985327 
L 197.460694 335.184438 
L 203.433004 331.153626 
L 210.898392 325.835951 
L 219.856858 319.159638 
L 236.280712 306.81434 
L 242.253022 302.592132 
L 246.732255 299.626421 
L 251.211488 296.88799 
L 255.69072 294.426116 
L 260.169953 292.287932 
L 263.156108 291.063778 
L 266.142264 290.014121 
L 269.128419 289.148923 
L 272.114574 288.476532 
L 275.100729 288.003482 
L 278.086884 287.734334 
L 281.07304 287.671559 
L 284.059195 287.815472 
L 287.04535 288.164267 
L 290.031505 288.714006 
L 293.01766 289.458631 
L 296.003816 290.390153 
L 298.989971 291.498971 
L 303.469204 293.469774 
L 307.948436 295.770673 
L 312.427669 298.353808 
L 316.906902 301.168597 
L 322.879212 305.193327 
L 331.837678 311.575176 
L 346.768454 322.293273 
L 354.233842 327.376515 
L 360.206152 331.219609 
L 366.178463 334.831875 
L 372.150773 338.196686 
L 378.123083 341.307469 
L 384.095394 344.165415 
L 390.067704 346.777547 
L 396.040015 349.154987 
L 402.012325 351.311519 
L 407.984635 353.262457 
L 415.450023 355.436398 
L 422.915411 357.3451 
L 430.380799 359.018496 
L 437.846187 360.484315 
L 446.804653 362.004748 
L 455.763118 363.301355 
L 466.214662 364.575614 
L 476.666205 365.635542 
L 488.610826 366.63162 
L 502.048524 367.530436 
L 516.9793 368.311481 
L 534.896231 369.016323 
L 555.799317 369.600715 
L 581.181637 370.068352 
L 614.029344 370.425848 
L 636.425508 370.583214 
L 636.425508 370.583214 
" clip-path="url(#p85ede506e7)" style="fill: none; stroke-dasharray: 8.51,3.68; stroke-dashoffset: 0; stroke: #e7298a; stroke-width: 2.3"/>
   </g>
   <g id="patch_3">
    <path d="M 65.77125 387.887176 
L 65.77125 7.2 
" style="fill: none; stroke: #cccccc; stroke-linejoin: miter; stroke-linecap: square"/>
   </g>
   <g id="patch_4">
    <path d="M 65.77125 387.887176 
L 663.59952 387.887176 
" style="fill: none; stroke: #cccccc; stroke-linejoin: miter; stroke-linecap: square"/>
   </g>
   <g id="legend_1">
    <g id="text_19">
     <!-- Scenario -->
     <g style="fill: #262626" transform="translate(541.798504 170.802338) scale(0.11 -0.11)">
      <defs>
       <path id="DejaVuSerif-53" d="M 594 225 
L 594 1288 
L 953 1284 
Q 969 753 1261 498 
Q 1553 244 2150 244 
Q 2706 244 2998 464 
Q 3291 684 3291 1106 
Q 3291 1444 3114 1625 
Q 2938 1806 2369 1978 
L 1753 2163 
Q 1084 2366 811 2669 
Q 538 2972 538 3500 
Q 538 4094 959 4422 
Q 1381 4750 2144 4750 
Q 2469 4750 2856 4679 
Q 3244 4609 3681 4475 
L 3681 3481 
L 3328 3481 
Q 3275 3975 2998 4195 
Q 2722 4416 2156 4416 
Q 1663 4416 1405 4214 
Q 1147 4013 1147 3628 
Q 1147 3294 1340 3103 
Q 1534 2913 2163 2725 
L 2741 2553 
Q 3375 2363 3645 2067 
Q 3916 1772 3916 1275 
Q 3916 597 3481 253 
Q 3047 -91 2188 -91 
Q 1803 -91 1404 -12 
Q 1006 66 594 225 
z
" transform="scale(0.015625)"/>
      </defs>
      <use xlink:href="#DejaVuSerif-53"/>
      <use xlink:href="#DejaVuSerif-63" transform="translate(68.505859 0)"/>
      <use xlink:href="#DejaVuSerif-65" transform="translate(124.511719 0)"/>
      <use xlink:href="#DejaVuSerif-6e" transform="translate(183.691406 0)"/>
      <use xlink:href="#DejaVuSerif-61" transform="translate(248.095703 0)"/>
      <use xlink:href="#DejaVuSerif-72" transform="translate(307.714844 0)"/>
      <use xlink:href="#DejaVuSerif-69" transform="translate(355.517578 0)"/>
      <use xlink:href="#DejaVuSerif-6f" transform="translate(387.5 0)"/>
     </g>
    </g>
    <g id="line2d_41">
     <path d="M 478.244832 182.188432 
L 488.244832 182.188432 
L 498.244832 182.188432 
" style="fill: none; stroke: #1b9e77; stroke-width: 2.5; stroke-linecap: round"/>
    </g>
    <g id="text_20">
     <!-- No drug -->
     <g style="fill: #262626" transform="translate(506.244832 185.688432) scale(0.1 -0.1)">
      <defs>
       <path id="DejaVuSerif-4e" d="M 313 0 
L 313 331 
L 941 331 
L 941 4331 
L 313 4331 
L 313 4666 
L 1509 4666 
L 4306 984 
L 4306 4331 
L 3681 4331 
L 3681 4666 
L 5319 4666 
L 5319 4331 
L 4691 4331 
L 4691 -91 
L 4313 -91 
L 1325 3841 
L 1325 331 
L 1953 331 
L 1953 0 
L 313 0 
z
" transform="scale(0.015625)"/>
       <path id="DejaVuSerif-67" d="M 3359 2988 
L 3359 72 
Q 3359 -644 2965 -1033 
Q 2572 -1422 1844 -1422 
Q 1516 -1422 1216 -1362 
Q 916 -1303 641 -1184 
L 641 -488 
L 941 -488 
Q 997 -813 1206 -963 
Q 1416 -1113 1806 -1113 
Q 2313 -1113 2548 -827 
Q 2784 -541 2784 72 
L 2784 519 
Q 2616 206 2355 57 
Q 2094 -91 1709 -91 
Q 1097 -91 708 395 
Q 319 881 319 1663 
Q 319 2444 706 2928 
Q 1094 3413 1709 3413 
Q 2094 3413 2355 3264 
Q 2616 3116 2784 2803 
L 2784 3322 
L 3909 3322 
L 3909 2988 
L 3359 2988 
z
M 2784 1825 
Q 2784 2422 2554 2737 
Q 2325 3053 1888 3053 
Q 1444 3053 1217 2703 
Q 991 2353 991 1663 
Q 991 975 1217 622 
Q 1444 269 1888 269 
Q 2325 269 2554 583 
Q 2784 897 2784 1497 
L 2784 1825 
z
" transform="scale(0.015625)"/>
      </defs>
      <use xlink:href="#DejaVuSerif-4e"/>
      <use xlink:href="#DejaVuSerif-6f" transform="translate(87.5 0)"/>
      <use xlink:href="#DejaVuSerif-20" transform="translate(147.705078 0)"/>
      <use xlink:href="#DejaVuSerif-64" transform="translate(179.492188 0)"/>
      <use xlink:href="#DejaVuSerif-72" transform="translate(243.505859 0)"/>
      <use xlink:href="#DejaVuSerif-75" transform="translate(291.308594 0)"/>
      <use xlink:href="#DejaVuSerif-67" transform="translate(355.712891 0)"/>
     </g>
    </g>
    <g id="line2d_42">
     <path d="M 478.244832 197.008744 
L 488.244832 197.008744 
L 498.244832 197.008744 
" style="fill: none; stroke: #d95f02; stroke-width: 2.5; stroke-linecap: round"/>
    </g>
    <g id="text_21">
     <!-- Baseline drug -->
     <g style="fill: #262626" transform="translate(506.244832 200.508744) scale(0.1 -0.1)">
      <defs>
       <path id="DejaVuSerif-42" d="M 1581 331 
L 2516 331 
Q 3078 331 3337 575 
Q 3597 819 3597 1350 
Q 3597 1878 3339 2120 
Q 3081 2363 2516 2363 
L 1581 2363 
L 1581 331 
z
M 1581 2694 
L 2375 2694 
Q 2888 2694 3123 2891 
Q 3359 3088 3359 3513 
Q 3359 3941 3123 4136 
Q 2888 4331 2375 4331 
L 1581 4331 
L 1581 2694 
z
M 353 0 
L 353 331 
L 947 331 
L 947 4331 
L 353 4331 
L 353 4666 
L 2656 4666 
Q 3363 4666 3720 4377 
Q 4078 4088 4078 3513 
Q 4078 3097 3829 2850 
Q 3581 2603 3103 2547 
Q 3697 2472 4005 2167 
Q 4313 1863 4313 1350 
Q 4313 656 3875 328 
Q 3438 0 2509 0 
L 353 0 
z
" transform="scale(0.015625)"/>
       <path id="DejaVuSerif-6c" d="M 1313 331 
L 1856 331 
L 1856 0 
L 184 0 
L 184 331 
L 738 331 
L 738 4531 
L 184 4531 
L 184 4863 
L 1313 4863 
L 1313 331 
z
" transform="scale(0.015625)"/>
      </defs>
      <use xlink:href="#DejaVuSerif-42"/>
      <use xlink:href="#DejaVuSerif-61" transform="translate(73.486328 0)"/>
      <use xlink:href="#DejaVuSerif-73" transform="translate(133.105469 0)"/>
      <use xlink:href="#DejaVuSerif-65" transform="translate(184.423828 0)"/>
      <use xlink:href="#DejaVuSerif-6c" transform="translate(243.603516 0)"/>
      <use xlink:href="#DejaVuSerif-69" transform="translate(275.585938 0)"/>
      <use xlink:href="#DejaVuSerif-6e" transform="translate(307.568359 0)"/>
      <use xlink:href="#DejaVuSerif-65" transform="translate(371.972656 0)"/>
      <use xlink:href="#DejaVuSerif-20" transform="translate(431.152344 0)"/>
      <use xlink:href="#DejaVuSerif-64" transform="translate(462.939453 0)"/>
      <use xlink:href="#DejaVuSerif-72" transform="translate(526.953125 0)"/>
      <use xlink:href="#DejaVuSerif-75" transform="translate(574.755859 0)"/>
      <use xlink:href="#DejaVuSerif-67" transform="translate(639.160156 0)"/>
     </g>
    </g>
    <g id="line2d_43">
     <path d="M 478.244832 211.829057 
L 488.244832 211.829057 
L 498.244832 211.829057 
" style="fill: none; stroke: #7570b3; stroke-width: 2.5; stroke-linecap: round"/>
    </g>
    <g id="text_22">
     <!-- No restoration, baseline m_r -->
     <g style="fill: #262626" transform="translate(506.244832 215.329057) scale(0.1 -0.1)">
      <defs>
       <path id="DejaVuSerif-2c" d="M 231 -622 
Q 525 -406 662 -114 
Q 800 178 800 594 
L 800 709 
L 1416 709 
Q 1391 175 1164 -208 
Q 938 -591 481 -872 
L 231 -622 
z
" transform="scale(0.015625)"/>
       <path id="DejaVuSerif-62" d="M 738 331 
L 738 4531 
L 184 4531 
L 184 4863 
L 1313 4863 
L 1313 2803 
Q 1481 3116 1742 3264 
Q 2003 3413 2388 3413 
Q 3000 3413 3387 2928 
Q 3775 2444 3775 1663 
Q 3775 881 3387 395 
Q 3000 -91 2388 -91 
Q 2003 -91 1742 57 
Q 1481 206 1313 519 
L 1313 0 
L 184 0 
L 184 331 
L 738 331 
z
M 1313 1497 
Q 1313 897 1542 583 
Q 1772 269 2209 269 
Q 2650 269 2876 622 
Q 3103 975 3103 1663 
Q 3103 2353 2876 2703 
Q 2650 3053 2209 3053 
Q 1772 3053 1542 2737 
Q 1313 2422 1313 1825 
L 1313 1497 
z
" transform="scale(0.015625)"/>
       <path id="DejaVuSerif-5f" d="M 3200 -1259 
L 3200 -1509 
L 0 -1509 
L 0 -1259 
L 3200 -1259 
z
" transform="scale(0.015625)"/>
      </defs>
      <use xlink:href="#DejaVuSerif-4e"/>
      <use xlink:href="#DejaVuSerif-6f" transform="translate(87.5 0)"/>
      <use xlink:href="#DejaVuSerif-20" transform="translate(147.705078 0)"/>
      <use xlink:href="#DejaVuSerif-72" transform="translate(179.492188 0)"/>
      <use xlink:href="#DejaVuSerif-65" transform="translate(227.294922 0)"/>
      <use xlink:href="#DejaVuSerif-73" transform="translate(286.474609 0)"/>
      <use xlink:href="#DejaVuSerif-74" transform="translate(337.792969 0)"/>
      <use xlink:href="#DejaVuSerif-6f" transform="translate(377.978516 0)"/>
      <use xlink:href="#DejaVuSerif-72" transform="translate(438.183594 0)"/>
      <use xlink:href="#DejaVuSerif-61" transform="translate(485.986328 0)"/>
      <use xlink:href="#DejaVuSerif-74" transform="translate(545.605469 0)"/>
      <use xlink:href="#DejaVuSerif-69" transform="translate(585.791016 0)"/>
      <use xlink:href="#DejaVuSerif-6f" transform="translate(617.773438 0)"/>
      <use xlink:href="#DejaVuSerif-6e" transform="translate(677.978516 0)"/>
      <use xlink:href="#DejaVuSerif-2c" transform="translate(742.382812 0)"/>
      <use xlink:href="#DejaVuSerif-20" transform="translate(774.169922 0)"/>
      <use xlink:href="#DejaVuSerif-62" transform="translate(805.957031 0)"/>
      <use xlink:href="#DejaVuSerif-61" transform="translate(869.970703 0)"/>
      <use xlink:href="#DejaVuSerif-73" transform="translate(929.589844 0)"/>
      <use xlink:href="#DejaVuSerif-65" transform="translate(980.908203 0)"/>
      <use xlink:href="#DejaVuSerif-6c" transform="translate(1040.087891 0)"/>
      <use xlink:href="#DejaVuSerif-69" transform="translate(1072.070312 0)"/>
      <use xlink:href="#DejaVuSerif-6e" transform="translate(1104.052734 0)"/>
      <use xlink:href="#DejaVuSerif-65" transform="translate(1168.457031 0)"/>
      <use xlink:href="#DejaVuSerif-20" transform="translate(1227.636719 0)"/>
      <use xlink:href="#DejaVuSerif-6d" transform="translate(1259.423828 0)"/>
      <use xlink:href="#DejaVuSerif-5f" transform="translate(1354.248047 0)"/>
      <use xlink:href="#DejaVuSerif-72" transform="translate(1404.248047 0)"/>
     </g>
    </g>
    <g id="line2d_44">
     <path d="M 478.244832 226.785307 
L 488.244832 226.785307 
L 498.244832 226.785307 
" style="fill: none; stroke: #e7298a; stroke-width: 2.5; stroke-linecap: round"/>
    </g>
    <g id="text_23">
     <!-- m_r = 1, baseline restoration -->
     <g style="fill: #262626" transform="translate(506.244832 230.285307) scale(0.1 -0.1)">
      <defs>
       <path id="DejaVuSerif-3d" d="M 678 2894 
L 4684 2894 
L 4684 2394 
L 678 2394 
L 678 2894 
z
M 678 1619 
L 4684 1619 
L 4684 1119 
L 678 1119 
L 678 1619 
z
" transform="scale(0.015625)"/>
      </defs>
      <use xlink:href="#DejaVuSerif-6d"/>
      <use xlink:href="#DejaVuSerif-5f" transform="translate(94.824219 0)"/>
      <use xlink:href="#DejaVuSerif-72" transform="translate(144.824219 0)"/>
      <use xlink:href="#DejaVuSerif-20" transform="translate(192.626953 0)"/>
      <use xlink:href="#DejaVuSerif-3d" transform="translate(224.414062 0)"/>
      <use xlink:href="#DejaVuSerif-20" transform="translate(308.203125 0)"/>
      <use xlink:href="#DejaVuSerif-31" transform="translate(339.990234 0)"/>
      <use xlink:href="#DejaVuSerif-2c" transform="translate(403.613281 0)"/>
      <use xlink:href="#DejaVuSerif-20" transform="translate(435.400391 0)"/>
      <use xlink:href="#DejaVuSerif-62" transform="translate(467.1875 0)"/>
      <use xlink:href="#DejaVuSerif-61" transform="translate(531.201172 0)"/>
      <use xlink:href="#DejaVuSerif-73" transform="translate(590.820312 0)"/>
      <use xlink:href="#DejaVuSerif-65" transform="translate(642.138672 0)"/>
      <use xlink:href="#DejaVuSerif-6c" transform="translate(701.318359 0)"/>
      <use xlink:href="#DejaVuSerif-69" transform="translate(733.300781 0)"/>
      <use xlink:href="#DejaVuSerif-6e" transform="translate(765.283203 0)"/>
      <use xlink:href="#DejaVuSerif-65" transform="translate(829.6875 0)"/>
      <use xlink:href="#DejaVuSerif-20" transform="translate(888.867188 0)"/>
      <use xlink:href="#DejaVuSerif-72" transform="translate(920.654297 0)"/>
      <use xlink:href="#DejaVuSerif-65" transform="translate(968.457031 0)"/>
      <use xlink:href="#DejaVuSerif-73" transform="translate(1027.636719 0)"/>
      <use xlink:href="#DejaVuSerif-74" transform="translate(1078.955078 0)"/>
      <use xlink:href="#DejaVuSerif-6f" transform="translate(1119.140625 0)"/>
      <use xlink:href="#DejaVuSerif-72" transform="translate(1179.345703 0)"/>
      <use xlink:href="#DejaVuSerif-61" transform="translate(1227.148438 0)"/>
      <use xlink:href="#DejaVuSerif-74" transform="translate(1286.767578 0)"/>
      <use xlink:href="#DejaVuSerif-69" transform="translate(1326.953125 0)"/>
      <use xlink:href="#DejaVuSerif-6f" transform="translate(1358.935547 0)"/>
      <use xlink:href="#DejaVuSerif-6e" transform="translate(1419.140625 0)"/>
     </g>
    </g>
   </g>
   <g id="legend_2">
    <g id="text_24">
     <!-- Strain -->
     <g style="fill: #262626" transform="translate(594.676864 24.558281) scale(0.11 -0.11)">
      <use xlink:href="#DejaVuSerif-53"/>
      <use xlink:href="#DejaVuSerif-74" transform="translate(68.505859 0)"/>
      <use xlink:href="#DejaVuSerif-72" transform="translate(108.691406 0)"/>
      <use xlink:href="#DejaVuSerif-61" transform="translate(156.494141 0)"/>
      <use xlink:href="#DejaVuSerif-69" transform="translate(216.113281 0)"/>
      <use xlink:href="#DejaVuSerif-6e" transform="translate(248.095703 0)"/>
     </g>
    </g>
    <g id="line2d_45">
     <path d="M 569.129208 35.944375 
L 579.129208 35.944375 
L 589.129208 35.944375 
" style="fill: none; stroke: #000000; stroke-width: 2.5; stroke-linecap: round"/>
    </g>
    <g id="text_25">
     <!-- High strain -->
     <g style="fill: #262626" transform="translate(597.129208 39.444375) scale(0.1 -0.1)">
      <defs>
       <path id="DejaVuSerif-48" d="M 353 0 
L 353 331 
L 947 331 
L 947 4331 
L 353 4331 
L 353 4666 
L 2175 4666 
L 2175 4331 
L 1581 4331 
L 1581 2719 
L 4000 2719 
L 4000 4331 
L 3406 4331 
L 3406 4666 
L 5228 4666 
L 5228 4331 
L 4634 4331 
L 4634 331 
L 5228 331 
L 5228 0 
L 3406 0 
L 3406 331 
L 4000 331 
L 4000 2338 
L 1581 2338 
L 1581 331 
L 2175 331 
L 2175 0 
L 353 0 
z
" transform="scale(0.015625)"/>
       <path id="DejaVuSerif-68" d="M 263 0 
L 263 331 
L 781 331 
L 781 4531 
L 231 4531 
L 231 4863 
L 1356 4863 
L 1356 2731 
Q 1516 3069 1770 3241 
Q 2025 3413 2363 3413 
Q 2913 3413 3172 3097 
Q 3431 2781 3431 2113 
L 3431 331 
L 3944 331 
L 3944 0 
L 2356 0 
L 2356 331 
L 2853 331 
L 2853 1931 
Q 2853 2541 2704 2764 
Q 2556 2988 2175 2988 
Q 1775 2988 1565 2697 
Q 1356 2406 1356 1850 
L 1356 331 
L 1856 331 
L 1856 0 
L 263 0 
z
" transform="scale(0.015625)"/>
      </defs>
      <use xlink:href="#DejaVuSerif-48"/>
      <use xlink:href="#DejaVuSerif-69" transform="translate(87.207031 0)"/>
      <use xlink:href="#DejaVuSerif-67" transform="translate(119.189453 0)"/>
      <use xlink:href="#DejaVuSerif-68" transform="translate(183.203125 0)"/>
      <use xlink:href="#DejaVuSerif-20" transform="translate(247.607422 0)"/>
      <use xlink:href="#DejaVuSerif-73" transform="translate(279.394531 0)"/>
      <use xlink:href="#DejaVuSerif-74" transform="translate(330.712891 0)"/>
      <use xlink:href="#DejaVuSerif-72" transform="translate(370.898438 0)"/>
      <use xlink:href="#DejaVuSerif-61" transform="translate(418.701172 0)"/>
      <use xlink:href="#DejaVuSerif-69" transform="translate(478.320312 0)"/>
      <use xlink:href="#DejaVuSerif-6e" transform="translate(510.302734 0)"/>
     </g>
    </g>
    <g id="line2d_46">
     <path d="M 569.129208 50.764687 
L 579.129208 50.764687 
L 589.129208 50.764687 
" style="fill: none; stroke-dasharray: 9.25,4; stroke-dashoffset: 0; stroke: #000000; stroke-width: 2.5"/>
    </g>
    <g id="text_26">
     <!-- Low strain -->
     <g style="fill: #262626" transform="translate(597.129208 54.264687) scale(0.1 -0.1)">
      <defs>
       <path id="DejaVuSerif-4c" d="M 353 0 
L 353 331 
L 947 331 
L 947 4331 
L 353 4331 
L 353 4666 
L 2175 4666 
L 2175 4331 
L 1581 4331 
L 1581 384 
L 3713 384 
L 3713 1166 
L 4097 1166 
L 4097 0 
L 353 0 
z
" transform="scale(0.015625)"/>
       <path id="DejaVuSerif-77" d="M 3072 3322 
L 3922 728 
L 4672 2988 
L 4191 2988 
L 4191 3322 
L 5394 3322 
L 5394 2988 
L 5025 2988 
L 4038 0 
L 3559 0 
L 2741 2484 
L 1919 0 
L 1459 0 
L 475 2988 
L 103 2988 
L 103 3322 
L 1606 3322 
L 1606 2988 
L 1069 2988 
L 1813 728 
L 2669 3322 
L 3072 3322 
z
" transform="scale(0.015625)"/>
      </defs>
      <use xlink:href="#DejaVuSerif-4c"/>
      <use xlink:href="#DejaVuSerif-6f" transform="translate(66.40625 0)"/>
      <use xlink:href="#DejaVuSerif-77" transform="translate(126.611328 0)"/>
      <use xlink:href="#DejaVuSerif-20" transform="translate(212.207031 0)"/>
      <use xlink:href="#DejaVuSerif-73" transform="translate(243.994141 0)"/>
      <use xlink:href="#DejaVuSerif-74" transform="translate(295.3125 0)"/>
      <use xlink:href="#DejaVuSerif-72" transform="translate(335.498047 0)"/>
      <use xlink:href="#DejaVuSerif-61" transform="translate(383.300781 0)"/>
      <use xlink:href="#DejaVuSerif-69" transform="translate(442.919922 0)"/>
      <use xlink:href="#DejaVuSerif-6e" transform="translate(474.902344 0)"/>
     </g>
    </g>
   </g>
  </g>
 </g>
 <defs>
  <clipPath id="p85ede506e7">
   <rect x="65.77125" y="7.2" width="597.82827" height="380.687176"/>
  </clipPath>
 </defs>
</svg>
